<svg width="16" height="63" viewBox="0 0 16 63" fill="none" xmlns="http://www.w3.org/2000/svg">
<path d="M11.5542 0.242676V5.62896H0.786621V9.50755H11.5542V14.8938H15.4344V9.50755V5.62896V0.242676H11.5542Z" fill="white"/>
<path d="M15.4347 52.8208H8.90973L2.74372 46.6548L0.000488281 49.398L5.1981 54.594L0.000488281 59.7932L2.74372 62.5348L8.58248 56.6994H15.4347V52.8208Z" fill="white"/>
<path d="M11.5541 35.6922H5.38975C4.70853 35.6922 4.15588 35.1178 4.15588 34.4082C4.15588 33.7037 4.70853 33.1293 5.38975 33.1293H11.5541V35.6922ZM11.5541 23.7609V29.3308L2.59142 23.2183L0.405847 26.4257L5.20609 29.6982H4.83542C2.33095 29.6982 0.300659 31.8086 0.300659 34.4066C0.300659 37.0112 2.33095 39.1217 4.83542 39.1217H11.5541H15.411H15.4344V23.7592H11.5541V23.7609Z" fill="white"/>
</svg>
